<?xml version="1.0" encoding="utf-8"?>
<!-- Generator: Adobe Illustrator 19.2.1, SVG Export Plug-In . SVG Version: 6.00 Build 0)  -->
<svg version="1.1" id="Layer_1" xmlns="http://www.w3.org/2000/svg" xmlns:xlink="http://www.w3.org/1999/xlink" x="0px" y="0px"
	 viewBox="0 0 4545.9 4925.9" style="enable-background:new 0 0 4545.9 4925.9;" xml:space="preserve">
<path d="M598.5,3600.6l-138.6-0.5c-1.9,0-7.8,2.9-7.8,2.9l-319.9,371l-0.3-367.2c0-3.9-3.8-7.8-8.7-7.8l-111.5-0.4
	c-5.8,0-9.7,3.9-9.7,7.8L0,4272.4c0,3.9,3.9,7.8,9.7,7.8l111.5,0.4c4.8,0,8.7-3.9,8.7-7.8l1.8-123.2
	c18.5-18.4,99.9-98.4,116.5-116.9l197,246c1,1,5.8,2.9,7.8,2.9l145.4,0.5c8.7,0,13.6-6.8,7.8-12.6l-271.4-323.2l271.5-333
	C612.1,3607.5,607.3,3600.7,598.5,3600.6z"/>
<path d="M1584.3,4785.2l-0.1,46l74.2,0.2c-7.1,15.1-16.5,26.3-28.1,33.4c-11.6,7.1-25.8,10.6-42.7,10.5
	c-25.9-0.1-47.7-8.8-65.3-26.1c-17.6-17.3-26.4-38.4-26.3-63.3c0.1-24,8.7-44.4,25.7-61.2c17.1-16.7,38.2-25.1,63.5-25
	c29,0.1,54.3,11.7,75.9,34.9l34.5-34c-15.6-17.1-31.6-29.2-48-36.2c-19.4-8.3-40.2-12.6-62.5-12.6c-42.6-0.1-77.3,14.8-104,44.7
	c-22.5,25.1-33.8,54.7-33.9,88.8c-0.1,24.9,5.9,48,18,69.6c12.1,21.5,28.5,38.1,49.3,49.8c20.8,11.7,44.5,17.6,71.1,17.7
	c24.9,0.1,46.5-5.1,65.1-15.7c18.5-10.6,33.6-25.9,45.3-46.1c11.7-20.1,17.6-41.5,17.6-64l-0.3-10.9L1584.3,4785.2z"/>
<path d="M4346.8,4162.6c-31.9,14.3-67.1,21.4-105.5,21.3c-45.1-0.1-86-10.6-122.9-31.3c-36.8-20.7-65.3-49.2-85.3-85.5
	c-20.1-36.2-30-77.7-29.9-124.3c0.2-66.9,23.2-123.2,68.9-168.7c45.7-45.5,101.8-68.2,168.4-68c78.8,0.3,149.7,34,212.5,101.1
	l93-88.4c-38.4-45.1-84.1-79.9-137.2-104.4c-53.1-24.5-108.4-36.9-165.8-37.1c-67.5-0.2-130.6,16.1-189.3,48.8
	c-58.7,32.8-103.8,76.2-135.3,130.3c-31.6,54.1-47.5,116-47.7,185.7c-0.3,107.8,33.9,196.2,102.6,265.4
	c68.7,69.2,157.2,103.9,265.5,104.3c58.7,0.2,111-9.4,156.8-28.7c45.8-19.4,94.5-54.1,146.1-104.4l-89.6-94.5
	C4413.8,4122.2,4378.7,4148.3,4346.8,4162.6z"/>
<path d="M2565.8,3607.2l-138.6-0.5c-1.9,0-7.8,2.9-7.8,2.9l-319.9,371l-0.3-367.2c0-3.9-3.9-7.8-8.7-7.8l-111.5-0.4
	c-5.8,0-9.7,3.8-9.7,7.8l-2.1,665.9c0,3.9,3.9,7.8,9.7,7.8l111.5,0.4c4.8,0,8.7-3.9,8.8-7.8l1.8-123.2
	c18.5-18.4,99.9-98.4,116.5-116.9l197,246c1,1,5.8,2.9,7.8,2.9l145.4,0.5c8.7,0,13.6-6.8,7.8-12.6L2302,3952.9l271.5-333
	C2579.3,3614,2574.5,3607.2,2565.8,3607.2z"/>
<path d="M2765.3,4822.6c-0.1,17.3-1.3,29-3.7,35.1c-2.4,6.1-6.7,11.1-12.9,15.1c-6.2,4-49.8,5.8-58.4,5.7c-8.1,0-15.1-1.8-20.8-5.4
	c-5.7-3.6-9.8-8.3-12.3-14.3c-2.5-5.9-3.7-16.1-3.7-30.4l0.5-166.5l-49-0.2l-0.5,153.5c-0.1,30.7,2.8,52.5,8.7,65.4
	c5.9,12.9,15.7,23.7,29.4,32.3c13.7,8.6,29.9,13,48.5,13c14.2,0,62.7-2,73.4-6.5c10.7-4.5,20.2-11.3,28.4-20.6s13.8-19,16.7-29
	c2.9-10,4.4-28,4.5-53.9l0.5-153.5l-49-0.2L2765.3,4822.6z"/>
<path d="M2862.5,908l-264.8-0.8c-3.7,0-14.8,5.5-14.8,5.5l-611,699.8l-0.5-692.6c0-7.3-7.4-14.7-16.6-14.8l-212.9-0.7
	c-11.1,0-18.5,7.3-18.6,14.6l-4.1,1255.9c0,7.4,7.4,14.7,18.5,14.8l212.9,0.7c9.3,0,16.7-7.3,16.7-14.6l3.5-232.4
	c35.3-34.8,190.9-185.6,222.5-220.4l376.2,463.9c1.8,1.9,11.1,5.6,14.8,5.6l277.7,0.9c16.7,0.1,25.9-12.8,14.9-23.8l-518.3-609.4
	l518.6-628.2C2888.4,921,2879.2,908.1,2862.5,908z"/>
<path d="M2261.7,0c-827-2.6-1501.9,664.3-1504.6,1486.8c-2.7,822.4,668,1493.7,1494.9,1496.3c827,2.6,1501.9-664.3,1504.5-1486.8
	C3759.2,673.9,3088.6,2.6,2261.7,0z M2252.8,2736.1c-690-2.2-1249.6-562.3-1247.3-1248.5c2.2-686.3,565.4-1242.8,1255.4-1240.6
	c690,2.2,1249.6,562.3,1247.3,1248.5C3506,2181.8,2942.8,2738.3,2252.8,2736.1z"/>
<path d="M3484.5,3682.2c-70.7-71.9-155.3-108-253.8-108.3c-65.1-0.2-125.8,16-182.3,48.6c-56.5,32.6-100.9,76.9-133.3,132.9
	c-32.4,56-48.7,117.4-48.9,184.3c-0.3,99.8,34,186.2,102.9,258.9c68.9,72.8,155.7,109.4,260.2,109.7
	c99.8,0.3,184.8-34.7,254.9-105.2c70.2-70.4,105.4-156.7,105.7-258.8C3590.3,3841.6,3555.2,3754.1,3484.5,3682.2z M3390.6,4111.7
	c-44.4,45.5-98,68.1-160.9,67.9c-55.6-0.2-104.8-17.9-147.7-53.3c-55.1-45.2-82.6-106.5-82.3-183.8c0.2-69.4,22.3-126.5,66.4-171.4
	c44.1-44.9,98.3-67.2,162.7-67c63.8,0.2,117.9,23.4,162.3,69.7c44.4,46.3,66.5,102.7,66.3,169.2
	C3457.3,4010,3435,4066.2,3390.6,4111.7z"/>
<path d="M1517.3,3675.7c-70.7-71.9-155.3-108-253.8-108.3c-65.1-0.2-125.8,16-182.3,48.6c-56.5,32.6-100.9,76.9-133.3,132.9
	c-32.4,56-48.7,117.4-48.9,184.3c-0.3,99.8,34,186.2,102.9,259c68.9,72.8,155.7,109.4,260.2,109.7c99.8,0.3,184.8-34.7,254.9-105.2
	c70.2-70.4,105.4-156.7,105.7-258.7C1623.1,3835,1587.9,3747.6,1517.3,3675.7z M1423.4,4105.2c-44.4,45.5-98,68.1-160.8,67.9
	c-55.6-0.2-104.8-17.9-147.7-53.3c-55.1-45.2-82.6-106.5-82.4-183.8c0.2-69.4,22.3-126.5,66.4-171.4c44-44.9,98.3-67.2,162.8-67
	c63.8,0.2,117.9,23.5,162.3,69.7c44.4,46.3,66.5,102.7,66.3,169.2C1490,4003.5,1467.8,4059.7,1423.4,4105.2z"/>
<path d="M2029.5,4802.7c16.3-5.8,28.5-14.3,36.6-25.7c8.1-11.3,12.2-25.5,12.2-42.4c0.1-16.1-3.6-30.1-10.8-41.9
	c-7.3-11.8-17.8-24.6-29.9-29.4c-18.8-7.6-112.1-3.9-140.4-4l-51.7-0.2l-0.8,257.5l48.8,0.2l0.3-109l85.4,0.3l57.3,109.2l53.3,0.2
	L2029.5,4802.7z M2022.2,4754.2c-5.9,4.1-16.5,6.1-32.1,6l-96.2-0.3l0.2-52.9l94.3,0.3c13,0,21.9,1,26.8,2.8c4.9,1.8,8.7,4.8,11.6,9
	c2.9,4.2,4.3,9.1,4.3,14.7C2031,4743.4,2028.1,4750.1,2022.2,4754.2z"/>
<path d="M3141.6,4696.4c-7.1-11.6-16.8-25.1-29.2-30.3c-12.4-5.2-68.7-3-96.7-3.1l-51.8-0.2l-0.8,257.5l48.8,0.2l0.3-109.1
	c24.9,0.1,78.1-1.1,87.6-3.7c16-4.6,28.8-12.9,38.2-24.7c9.4-11.9,14.1-26.8,14.2-44.8C3152.3,4722,3148.7,4708,3141.6,4696.4z
	 M3100.8,4752.6c-2.7,4-6.5,6.9-11.3,8.7c-4.8,1.7-49.4,2.5-61.6,2.4l-15.5-0.1l0.2-52.9l13.8,0c15.1,0.1,61.6-3.1,67.2,0.3
	c7.7,4.6,11.5,16.9,11.4,26.8C3105,4743.7,3103.6,4748.6,3100.8,4752.6z"/>
<path d="M2428.7,4694.1c-26-26.5-57.2-39.8-93.4-39.9c-24-0.1-46.3,5.9-67.1,17.9c-20.8,12-37.1,28.3-49.1,48.9
	c-11.9,20.6-17.9,43.2-18,67.8c-0.1,36.8,12.5,68.5,37.9,95.4c25.4,26.8,57.3,40.3,95.8,40.4c36.7,0.1,68-12.8,93.8-38.7
	c25.8-25.9,38.8-57.7,38.9-95.3C2467.7,4752.8,2454.8,4720.6,2428.7,4694.1z M2394.2,4852.3c-16.3,16.8-36.1,25.1-59.2,25
	c-20.5-0.1-38.6-6.6-54.4-19.6c-20.3-16.6-30.4-39.2-30.3-67.7c0.1-25.6,8.2-46.6,24.4-63.1c16.2-16.5,36.2-24.7,59.9-24.7
	c23.5,0.1,43.4,8.6,59.8,25.7c16.3,17,24.5,37.8,24.4,62.3C2418.7,4814.8,2410.5,4835.5,2394.2,4852.3z"/>
</svg>
