<?xml version="1.0" encoding="utf-8"?>
<!-- Generator: Adobe Illustrator 19.2.1, SVG Export Plug-In . SVG Version: 6.00 Build 0)  -->
<svg version="1.1" id="Layer_1" xmlns="http://www.w3.org/2000/svg" xmlns:xlink="http://www.w3.org/1999/xlink" x="0px" y="0px"
	 width="4545.9px" height="4925.9px" viewBox="0 0 4545.9 4925.9" enable-background="new 0 0 4545.9 4925.9" xml:space="preserve">
<g>
	<polygon points="164,3938.6 131.2,3976.7 131.2,3938.6 2,3938.4 1.6,4087.5 312.7,3938.8 	"/>
	<polygon points="552.4,3677.8 408.2,3655.4 361.8,3709.3 461.9,3788.8 	"/>
	<polygon points="356.8,3917.8 460.7,3790.3 360.5,3710.8 165.7,3936.6 316.9,3936.8 	"/>
	<polygon points="353.8,3921.4 321.5,3936.8 341.2,3936.9 	"/>
	<path d="M598.5,3601.6l-138.6-0.5c-1.2,0-5,1.6-7.1,2.8l-43,49.8l144.1,22.4l51.7-63.5c2.1-2.1,2.7-4.3,1.9-6.4
		C606.4,3603.5,602.8,3601.6,598.5,3601.6z"/>
	<path d="M334,3945.6l5.4-6.7l0.1-0.1h-22.2L1.6,4089.7l-0.3,106.8l128.8-3l0.9-44.7c3.5-3.4,9.1-9,16.1-15.9
		c30.4-30,86.9-85.9,101.2-101.8l125.5,156.8l159.5-3.7L334,3945.6z"/>
	<path d="M535,4186.2l-159.7,3.7l70.6,88.1c0.9,0.8,5.3,2.6,7.1,2.6l145.4,0.5c4.3,0,7.9-1.7,9-4.5c0.8-2.1,0.2-4.3-1.9-6.4
		L535,4186.2z"/>
	<path d="M130.9,3612.2l-80.3-12.5l-38.9-0.1c-5.4,0-8.7,3.5-8.7,6.8l-0.8,261.7L131,3753.4L130.9,3612.2z"/>
	<path d="M130.9,3606.8c0-3.2-3.2-6.8-7.7-6.8l-59.2-0.2l66.9,10.4V3606.8z"/>
	<polygon points="131,3756.1 2.2,3870.8 2,3936.4 131.2,3936.6 	"/>
	<path d="M1,4272.3c0,3.3,3.3,6.8,8.7,6.8l111.5,0.4c4.4,0,7.7-3.6,7.7-6.8l1.1-77.2l-128.8,3L1,4272.3z"/>
	<path d="M1585.4,4652.8c-0.3,0-0.5,0-0.6-0.1c-10.6,0-20.8,1-30.4,2.9l59.5,47.2c17.3,5.2,33.2,15.4,47.3,30.3l5.3-5.2l-25.3-65
		C1623.6,4656.2,1604.8,4652.8,1585.4,4652.8z"/>
	<path d="M1695.2,4860.1c5-8.7,9-17.7,11.9-27l-18.4,37.1C1690.9,4867,1693.1,4863.6,1695.2,4860.1z"/>
	<path d="M1691.4,4786.6l16,41.2l2.2-4.4c2-8.7,3-17.7,3-26.8l-0.3-9.9L1691.4,4786.6z"/>
	<path d="M1694.2,4700.6c-15.3-16.6-31.1-28.4-47-35.2c-1.1-0.5-2.3-1-3.5-1.5l24.3,62.5L1694.2,4700.6z"/>
	<path d="M1702.5,4820.7l-13.2-33.9l-104-0.4l-0.1,44l74.8,0.2l-0.7,1.4c-7.2,15.2-16.8,26.6-28.5,33.8c-11.6,7.1-26,10.6-43.2,10.6
		c-26.1-0.1-48.3-9-66-26.4c-17.8-17.4-26.7-39-26.6-64c0.1-24.1,8.8-44.9,26-61.9c17.2-16.8,38.6-25.3,64.2-25.3
		c8.2,0,16.1,0.9,23.7,2.8l-57.2-45.4c-27.4,5.9-50.8,19.6-69.8,41.2c-22.3,24.8-33.6,54.4-33.7,88.1c-0.1,24.5,5.9,47.8,17.9,69.1
		c12,21.2,28.4,37.9,48.9,49.4c20.6,11.6,44.3,17.5,71.3,17.6c24.7,0,45.6-5.1,64-15.6c12.2-6.9,22.9-16.1,32.1-27.2l23.9-48.3
		L1702.5,4820.7z"/>
	<path d="M4090.4,4284c0.1,0,0.1,0,0.1,0.1c0.3,0.2,0.6,0.3,1,0.4c21.7,8.5,44.8,15,69.1,19.4l-49.4-35.4L4090.4,4284z"/>
	<path d="M4032.2,4067.6c-19.9-35.8-30-77.4-30-123.8l-130.5-0.2c0,52.9,8.5,101.8,25.3,145.3c2.3,5.9,4.8,11.7,7.4,17.5l152-3.5
		C4047.3,4092.1,4039.2,4080.3,4032.2,4067.6z"/>
	<path d="M4441.4,4095.9c-33.8,32-65.4,54.6-94.1,67.5c-31.7,14.2-67,21.4-105.9,21.4c-6.2,0-12.2-0.2-18.2-0.6l-69.4,52.2l0.1,0
		l254.7,39.7c41.6-20.1,85.8-52.8,131.7-97.4l-78.8-83.1L4441.4,4095.9z"/>
	<path d="M4113,4267.2l52.2,37.4c23.5,3.9,48.1,6,73.7,6.1c0.5,0,1,0,1.5,0c57.6,0,109.8-9.6,154.9-28.6c3.3-1.4,6.7-2.9,10.1-4.5
		l-253.8-39.5L4113,4267.2z"/>
	<path d="M4045.9,4221.7l-67.4-10.5c32.2,31.3,69.1,55.5,109.8,72l21.2-15.9L4045.9,4221.7z"/>
	<path d="M4071.3,3773.3c45.5-45.3,102.1-68.3,169.1-68.3c39.4,0.1,77.3,8.8,112.7,25.6c35.2,16.7,68.8,42,99.9,75.1l91.6-87
		c-38-44.4-83.8-79.2-136.2-103.4c-52.8-24.4-108.5-36.8-166.6-37c-66.5,0-129.6,16.4-187.7,48.6c-58.3,32.5-103.7,76.3-134.9,129.9
		c-31.3,53.6-47.3,115.7-47.6,184.7l130.5,0.2C4002.6,3875.2,4025.8,3818.6,4071.3,3773.3z"/>
	<path d="M4151,4236.1l69.1-52c-36.8-2.9-71.1-13.2-102.2-30.6c-23.2-13.1-43.2-29.3-59.8-48.6l-152.8,3.5c2.5,5.3,5,10.5,7.7,15.6
		l133.7,95.9L4151,4236.1z"/>
	<path d="M4443.5,4094l16.2-0.4l-7.6-8C4449.2,4088.5,4446.3,4091.3,4443.5,4094z"/>
	<path d="M3915.1,4127.9c15.5,28.6,35.2,55.1,58.9,78.9c0.7,0.7,1.3,1.3,2,2l66.3,10.3L3915.1,4127.9z"/>
	<polygon points="4148.8,4237.7 4050.3,4222.4 4111.2,4266 	"/>
	<path d="M1968.6,4153.1l-0.4,125.8c0,3.1,3,6.5,7.9,6.8l66.5-134.3L1968.6,4153.1z"/>
	<path d="M1978.3,4285.7L1978.3,4285.7l110.1,0.4c4.4,0,7.7-3.6,7.8-6.8l2.1-123.9c1.4-1.4,3.2-3.3,5.4-5.4l-58.9,1.4L1978.3,4285.7
		z"/>
	<polygon points="1969.4,3896.4 2098.4,3916.5 2098.3,3692.5 1969.8,3757.1 	"/>
	<path d="M2098.2,3613.4c0-3.2-3.3-6.8-7.7-6.8l-111.5-0.4c-5.4,0-8.7,3.5-8.7,6.8l-0.4,141.8l128.4-64.6L2098.2,3613.4z"/>
	<polygon points="2155.8,3927.4 2149.9,3939.3 2232.5,3939.4 	"/>
	<path d="M2565.8,3608.2l-138.6-0.5c-1.2,0-4.9,1.6-7.1,2.7l-79,91.6l114,61.6l117.7-144.3c2.1-2.2,2.8-4.5,1.9-6.6
		C2573.5,3610,2570.1,3608.2,2565.8,3608.2z"/>
	<path d="M2215.4,4037.6l84.7,105.8l157.5-3.6l-156.5-187.6l1.6-1.9l-57.3-8.9l-96.5-0.1l-103.3,208l0.2,0l59.8-1.4
		c2.6-2.5,5.4-5.4,8.6-8.5c30.4-30,86.9-85.9,100.4-100.9L2215.4,4037.6z"/>
	<polygon points="2162.9,3908.7 2149.3,3924.4 2154.6,3925.2 	"/>
	<path d="M2459.4,4141.8l-157.6,3.6l0,0l111.4,139.1c0.9,0.8,5.3,2.6,7.1,2.6l145.4,0.5c4.3,0,7.9-1.7,9-4.5
		c0.8-2.1,0.2-4.3-1.9-6.4L2459.4,4141.8z"/>
	<polygon points="2453.8,3765.2 2339.7,3703.5 2168.1,3902.6 2156.7,3925.6 2245.6,3939.4 2311.6,3939.5 	"/>
	<polygon points="2146.7,3941.3 2134.7,3941.3 2098.5,3983.3 2098.5,3941.2 1969.3,3941 1968.6,4151.1 2043.6,4149.4 	"/>
	<polygon points="1969.3,3939 2098.5,3939.2 2098.4,3918.5 1969.4,3898.4 	"/>
	<polygon points="2153.7,3927.1 2147.7,3926.2 2136.5,3939.3 2147.7,3939.3 	"/>
	<polygon points="2310,3941.5 2258.6,3941.4 2304.3,3948.5 	"/>
	<polygon points="2652.8,4722.4 2605.8,4711.6 2605.7,4763.8 2623.5,4774.2 2652.7,4772.9 	"/>
	<path d="M2762.6,4858c-2.5,6.3-6.9,11.5-13.3,15.6c-1.8,1.2-6.5,2.2-12.6,3l2.1,45.9c11.4-1,21.3-2.4,25.4-4.1
		c10.6-4.5,20.1-11.3,28-20.3c4.8-5.4,8.7-11.1,11.7-16.8l-41.1-23.9C2762.7,4857.6,2762.6,4857.9,2762.6,4858z"/>
	<polygon points="2653,4662.9 2606,4662.7 2605.8,4709.6 2652.8,4720.4 	"/>
	<polygon points="2605.7,4766.1 2605.6,4775 2619.8,4774.3 	"/>
	<path d="M2766.2,4822.6c-0.1,15.5-1,26.3-2.9,32.9l41.4,24c1.6-3.3,2.9-6.6,3.9-10c2.9-9.8,4.4-27.9,4.5-53.6l0.2-48.2v0l-46.9,2.1
		L2766.2,4822.6z"/>
	<polygon points="2652.7,4774.9 2626.7,4776 2652.6,4791.1 	"/>
	<path d="M2691.1,4879.6c-0.3,0-0.6,0-0.8,0c-8.3,0-15.5-1.9-21.3-5.6c-6-3.8-10.1-8.6-12.7-14.8c-2.6-6-3.8-16.1-3.8-30.8l0.1-35
		l-29.6-17.2l-17.4,1l-0.1,38.2c-0.1,30.4,2.8,52.3,8.6,65c5.8,12.7,15.6,23.5,29,31.9c13.6,8.5,29.7,12.8,48,12.8
		c7.9,0,28.1-0.7,45.6-2.2l-2.1-45.9C2719.5,4878.8,2697.9,4879.6,2691.1,4879.6z"/>
	<polygon points="2766.4,4746.5 2813.3,4757.3 2813.6,4663.4 2766.6,4663.2 	"/>
	<polygon points="2766.4,4767.8 2813.3,4765.7 2813.3,4759.4 2766.4,4748.6 	"/>
	<polygon points="1802.4,928.4 1790.5,957.6 1878.4,1043.3 1942.5,988 	"/>
	<polygon points="2279.8,1434.4 2380.3,1532.3 2482,1409.2 2440.8,1399.2 	"/>
	<polygon points="2198.2,1354.9 2278.1,1432.8 2436.3,1398.1 2208.6,1342.9 	"/>
	<polygon points="1722.2,1554.5 1970.8,1500.1 1970.7,1285.2 1904.7,1269.3 1722.5,1463.1 	"/>
	<path d="M2872.2,2165.6l-151.4-178l-365.5-66.4l215,265.1c1.5,1.6,10.6,5.2,14,5.2l270.2,0.9L2872.2,2165.6z"/>
	<polygon points="1970.5,1000 1944.5,988.9 1879.9,1044.7 1950.7,1113.7 1970.5,1108.6 	"/>
	<path d="M1748.6,905.4h-6.7c-1.6,0-3.1,0.2-4.5,0.4L1789,956l11.6-28.4l0-0.1l-51.9-22.1H1748.6z"/>
	<polygon points="1722.5,1460.2 1902.5,1268.7 1723.3,1225.3 	"/>
	<polygon points="1723.5,1172 1731.8,1169.8 1876.9,1044.6 1789.7,959.6 1723.6,1121.6 	"/>
	<path d="M1724.2,919.1l-0.6,197.2l64.5-158.1l-53-51.7C1728.4,908.7,1724.4,914,1724.2,919.1z"/>
	<polygon points="2210.1,1341.2 2440.8,1397.1 2503.2,1383.5 2598.7,1267.8 2362.2,1167 	"/>
	<polygon points="1721.4,1804.1 1966.8,1848.6 1722,1621.6 	"/>
	<polygon points="1948.4,1114.3 1878.4,1046 1736.2,1168.7 	"/>
	<polygon points="1906.3,1267.6 1970.7,1283.2 1970.6,1199.2 	"/>
	<path d="M1722,1618.9l248.3,230.3l80.3,14.6c56.3-55,122.5-120.2,143.4-141.5l91.3,112.5l173.9-154.8l0,0l-101.4-120.5l21.2-25.6
		l0-0.1l-101.5-98.9l-184.5,40.5l-122.1,139.8l-0.1-113l-248.6,54.4L1722,1618.9z"/>
	<path d="M1720.2,2174.9c0,6.6,6.7,13.7,17.5,13.8l149.8,0.5l79.6-70.9l2.9-175.6c7.9-7.8,21.7-21.2,39.2-38.3
		c2.8-2.7,5.7-5.5,8.6-8.4l-48.3-44.8l-248.1-45.1L1720.2,2174.9z"/>
	<polygon points="1801.3,925.7 1809.5,905.6 1753.8,905.4 	"/>
	<polygon points="1723.3,1223.2 1904.1,1267 1970.6,1196.3 1970.6,1135.8 1950.1,1115.9 1732.8,1171.7 1723.4,1179.7 	"/>
	<polygon points="1723.5,1177 1728.4,1172.8 1723.5,1174 	"/>
	<path d="M2583.6,913.5l-42.7,48.9l209.5-53.7l-152.7-0.5C2594.9,908.2,2586.7,911.9,2583.6,913.5z"/>
	<path d="M2049,1865.6l-75.8-13.8l46.1,42.8C2028.6,1885.5,2038.6,1875.8,2049,1865.6z"/>
	<polygon points="2286.6,1836.5 2353.4,1918.8 2718.8,1985.2 2460.5,1681.6 	"/>
	<path d="M2862.2,2192.4c8.5,0,15.4-3.5,17.7-9c1.8-4.3,0.5-8.9-3.7-13.1l-2.7-3.1l-16.7,25.2h5.1
		C2862,2192.4,2862.1,2192.4,2862.2,2192.4z"/>
	<path d="M2880.4,918.2c-2.2-5.5-9.3-9.1-17.9-9.2l-27-0.1l29.7,36l11.3-13.7C2880.7,927.1,2882.1,922.4,2880.4,918.2z"/>
	<polygon points="2095.2,1472.8 2275.8,1433.3 2196.9,1356.4 	"/>
	<path d="M1954.8,906.1l-143.1-0.5l-8.6,20.9l141,60.1l26.3-22.7v-44C1970.4,913.5,1963.7,906.2,1954.8,906.1z"/>
	<polygon points="2363.6,1165.4 2600.1,1266.1 2863.9,946.5 2832.9,908.9 2758.4,908.7 2538.5,965.1 	"/>
	<polygon points="1970.4,966.5 1946.2,987.5 1970.5,997.8 	"/>
	<path d="M1966.3,2175.8l0.8-54.8l-76.6,68.2l60.1,0.2C1959.6,2189.4,1966.3,2182.2,1966.3,2175.8z"/>
	<polygon points="2483.4,1407.5 2501.1,1386 2445.2,1398.2 	"/>
	<polygon points="1970.5,1110.7 1952.4,1115.3 1970.5,1133.1 	"/>
	<polygon points="2785.1,2657.3 2720.2,2788.3 2967.4,2670.1 	"/>
	<path d="M3441.8,805L3441.8,805l-114.3-42.3l-48,12.2c25.5,35.9,49.1,73.1,70.7,111.6L3441.8,805z"/>
	<path d="M990.9,2290.5c48.9,76.5,104.7,148.2,166.5,214.4l28.2-69.2l0-0.1L990.9,2290.5z"/>
	<path d="M3278.3,773.3l45.9-11.8l-75.3-27.8C3258.9,746.7,3268.8,759.9,3278.3,773.3z"/>
	<polygon points="1466.2,2564.4 1350.7,2556.3 1418.5,2606.9 	"/>
	<path d="M987.8,2285.8l198.5,148l76.3-187.2c-10.4-13.6-20.6-27.4-30.5-41.4l-123.7-88.7l-135.9,144.7
		C977.5,2269.4,982.6,2277.6,987.8,2285.8z"/>
	<path d="M1091.9,1037.1L899.1,858.3c-23.1,48.7-43.6,98.9-61.3,150.3l242.6,58.8C1084.1,1057.2,1087.9,1047.1,1091.9,1037.1z"/>
	<path d="M1235.6,773.2l-318.2,47.9c-6,11.7-11.8,23.4-17.4,35.3l192.7,178.8C1129.8,941.8,1178,853.9,1235.6,773.2z"/>
	<path d="M2713.7,2650.2l70.2,4.9l22.7-45.7C2776.3,2624.2,2745.3,2637.8,2713.7,2650.2z"/>
	<path d="M852.9,1931l255.2,182.8l41-43.6c-49.4-93.2-87.3-193.3-111.7-298.5L852.9,1931z"/>
	<path d="M2715.7,2792.6l0.1-0.1L2342.4,2971l-6.7,10c0.1,0,0.1,0,0.2,0c106.9-5.5,210.9-22.3,310.8-49.1L2715.7,2792.6z"/>
	<path d="M2971.5,2670.4l-252.7,120.8l-69.4,140.1c186.1-50.3,358-135.4,508.1-247.8L2971.5,2670.4z"/>
	<path d="M1228.7,2200.2c-28.6-41-54.9-83.7-78.5-128.1l-40.4,42.9l0.1,0L1228.7,2200.2z"/>
	<path d="M2809.5,2608.1C2809.4,2608.1,2809.4,2608.1,2809.5,2608.1l-11.8,23.8l-11.6,23.5l185,13l384-183.5l-167-162.8
		C3081.8,2439.8,2953.4,2537.3,2809.5,2608.1z"/>
	<path d="M3498,1651c-0.1,0.8-0.2,1.6-0.3,2.3l12.3,2.9l0.7,0.2L3498,1651z"/>
	<path d="M1225.4,409.8c-62.5,58.9-119.9,123.2-171.5,192l264-101.8L1225.4,409.8z"/>
	<path d="M2215.5,155.9l75.3,91.5c145.8,3.9,285.3,32.7,414.6,82.2L2913,150.4C2798.4,94.8,2675.6,53.2,2547,28L2215.5,155.9
		L2215.5,155.9z"/>
	<path d="M1402.9,582.7l-83.4-81.2l-267.8,103.3c-0.3,0.3-0.5,0.7-0.8,1l235.8,100.5C1322.6,662.6,1361.4,621.2,1402.9,582.7z"/>
	<path d="M1285.4,708l-235.8-100.5c-49.3,66.4-93.3,137.1-131.1,211.4l318.7-48C1252.6,749.4,1268.7,728.4,1285.4,708z"/>
	<path d="M3016.3,503l318.1-47.9c-113.4-116.5-245.7-214.8-391.9-289.9l-177.7,189C2854.7,394.1,2939.1,444.2,3016.3,503z"/>
	<path d="M2762.9,353.3l177.7-189.1c-8.5-4.3-17.1-8.6-25.7-12.8l-207.4,179C2726.2,337.6,2744.7,345.3,2762.9,353.3z"/>
	<path d="M3246.6,730.9l81.1,29.9l204.9-52.6c-56.5-90.7-122.4-174.9-196.5-251.3l-317.6,47.9
		C3103.9,570.2,3180.6,646.2,3246.6,730.9z"/>
	<path d="M2717.2,2789.6l65.7-132.5l-73.6-5.2c-62.4,24.2-127.3,43.5-194.1,57.4l-170.7,258.4l0.1,0L2717.2,2789.6z"/>
	<path d="M1321.5,500.8l82.8,80.6c164.1-152.2,369.2-261,596.7-308.2c0,0,0,0,0,0l-45.8-16.9L1321.5,500.8z"/>
	<path d="M2214.1,154.3l329.2-127c-91.2-17.6-185.4-27-281.6-27.3c-1.6,0-3.3,0-4.9,0c-25.7,0-51.2,0.7-76.6,2l-30.3,74.4
		L2214.1,154.3z"/>
	<path d="M2074.8,260.1c0,0,0.1,0,0.1,0c59.5-8.6,120.1-13.1,181.9-13.1c1.3,0,2.7,0,4,0c9.2,0,18.2,0.2,27.3,0.4l-74.7-90.8
		L2099,200.7L2074.8,260.1z"/>
	<path d="M3497.4,1655.3c-2.1,16.2-4.6,32.4-7.4,48.4l196.5,238.6c19.8-61.9,35.6-125.6,47.2-190.8l-211.9-90.3L3497.4,1655.3z"/>
	<path d="M2004.6,272.4c22.5-4.6,45.1-8.6,68-12l24-58.7L1958,255.2L2004.6,272.4z"/>
	<path d="M1005.5,1487.6c0.1-44.4,2.6-88.2,7.3-131.4c0,0,0,0,0,0l-254.1,65.2c-1,21.7-1.5,43.5-1.6,65.4
		c-0.2,48.3,2,96.1,6.4,143.3l255.8,46.4C1010,1614.9,1005.3,1551.8,1005.5,1487.6z"/>
	<path d="M1019.6,1678.7l-255.9-46.5c4.1,43.3,10,86.1,17.8,128.4l242.8-53.2C1022.6,1697.9,1021.1,1688.3,1019.6,1678.7z"/>
	<path d="M3523.7,1162l-56.6,12.4c6,22.8,11.4,45.9,16.2,69.1L3523.7,1162z"/>
	<path d="M3443.6,803.5l95.4-85c-1.7-2.9-3.5-5.7-5.3-8.6l-202.8,52L3443.6,803.5z"/>
	<path d="M816.3,1907.2c4.1,14,8.4,27.9,12.9,41.6l20.5-17.7L816.3,1907.2z"/>
	<path d="M1037,1769.5c-4.6-19.9-8.7-40-12.3-60.2L782,1762.4c0,0,0,0.1,0,0.1c8.9,48,20.1,95.2,33.5,141.5l35.8,25.7L1037,1769.5z"
		/>
	<path d="M1264.1,2248.4L1188,2435l159.7,119l120.6,8.5l63.9-56.9C1430.5,2433.6,1340.1,2346.8,1264.1,2248.4z"/>
	<path d="M2178,2c-28.1,1.5-56.1,3.7-83.8,6.7l54.2,65.9L2178,2z"/>
	<path d="M3189.4,2320.6l167.6,163.3l32.2-15.4c84.5-96.7,156.7-204.4,214.2-320.6l-256-46.5
		C3302.7,2180.2,3249.6,2253.7,3189.4,2320.6z"/>
	<path d="M3366.8,2493.5c6.3-6.9,12.6-14,18.8-21c0.1-0.1,0.1-0.1,0.2-0.2l-27.3,13.1L3366.8,2493.5z"/>
	<path d="M1079.6,1069.3l-242.5-58.8c-44.4,129.2-71.4,266.4-78.4,408.8l254.3-65.2C1024,1255.3,1046.7,1159.8,1079.6,1069.3z"/>
	<path d="M1344,2553.8L1344,2553.8l-156.8-116.9l-28.4,69.7c11.6,12.4,23.5,24.7,35.5,36.7L1344,2553.8z"/>
	<path d="M1347,2556l-150.5-10.6c46.1,45.9,95.1,88.8,146.9,128.4l73.6-65.6L1347,2556z"/>
	<path d="M2097.7,199.2l49.9-122.5L2091.8,9c-162,17.7-316.3,61.2-458.8,126.2l322.2,119L2097.7,199.2z"/>
	<path d="M3619.2,868.3c-23.7-51-50.1-100.4-79.2-148.1l-94.3,84.1L3619.2,868.3z"/>
	<path d="M2512.4,2710c-82.6,17.1-168.1,26.1-255.7,26.1c-1.3,0-2.7,0-4,0c-119.7-0.4-235.5-17.6-345.2-49.3l410.1,293.9l23.4-11.2
		L2512.4,2710z"/>
	<path d="M2338.8,2972.8L2338.8,2972.8l-19,9c4.5-0.2,9-0.4,13.4-0.6L2338.8,2972.8z"/>
	<path d="M1952.4,255.2l-321.9-118.8c-149.4,68.6-285.6,160.9-403.6,272l93.1,90.7L1952.4,255.2z"/>
	<path d="M3351.2,888.4c49.6,88.7,88.6,183.9,115.3,284.1l58.2-12.8l118-238.1c-7.1-17.1-14.6-34-22.3-50.8L3444,805.7L3351.2,888.4
		z"/>
	<path d="M3709.3,1119.3c-17.4-67-39.3-132.2-65.5-195.2l-116.4,235L3709.3,1119.3z"/>
	<path d="M1106.7,2115.4L1106.7,2115.4l-255.3-183.1l-21.5,18.6c35.5,108.7,83.2,212.1,141.6,308.4L1106.7,2115.4z"/>
	<path d="M1345,2675C1345,2675,1345,2675,1345,2675c146.7,112.1,314.8,197.9,497.1,250.1c0,0,0,0,0,0l-423.5-315.7L1345,2675z"/>
	<path d="M3526.2,1161.4l-42.3,85.3c16.2,80.5,24.6,163.7,24.3,248.8c-0.2,52-3.6,103.2-10,153.5l24.3,10.3l217.7,52.8
		c10.5-70.5,16.1-142.5,16.3-215.8c0.5-129.4-15.8-255.1-46.7-375L3526.2,1161.4z"/>
	<path d="M2975.1,2668.6l184.8,13c74.2-55.8,143-118.3,205.6-186.6l-8.9-8.7L2975.1,2668.6z"/>
	<path d="M3734.1,1749.5c2.1-11.7,4-23.5,5.8-35.4l-206.2-50L3734.1,1749.5z"/>
	<path d="M1641,2574.7c-37-20.9-72.7-43.5-107.2-67.9l-62.7,55.9L1641,2574.7z"/>
	<polygon points="2100.2,198.2 2212.1,155 2149,78.5 	"/>
	<path d="M2252,2983.2c1.7,0,3.4,0,5.1,0c19.3,0,38.6-0.4,58.5-1.5l-241.1-172.8l-172.7-123.8c-90.2-26.6-176.2-63.1-256.7-108.1
		l-176.1-12.4l-48.8,43.6l427.3,318.6C1976.2,2963.1,2111.8,2982.8,2252,2983.2z"/>
	<path d="M3348.4,2099.5l255.9,46.5c31.9-64.6,59.2-131.9,81.5-201.4l-196.3-238.3C3464.9,1846.8,3416.4,1979.4,3348.4,2099.5z"/>
	<path d="M3038.6,4081.1l-42.1-22.7l-0.1-0.1l-116.6-18.1c3.6,13.2,7.8,26.2,12.7,38.6c6.9,17.3,15.2,34,24.9,50.3l162-3.7
		C3063.5,4112.1,3049.8,4097.3,3038.6,4081.1z"/>
	<polygon points="3455.2,4127.7 3443.6,4119.1 3405.4,4119.9 3405.4,4120 	"/>
	<path d="M2916.1,3756c-32.2,55.5-48.6,117.4-48.8,184.3l131.5,0.2c0.4-48.4,11.8-91.2,33.8-127.8l-103.8-77.4
		C2924.3,3742,2920,3748.8,2916.1,3756z"/>
	<path d="M3563,3802.1c-17.5-43.4-44.1-83.5-79.2-119.2c-35.1-35.7-74.2-62.9-116.2-80.8s-88.1-27.1-138.1-27.2
		c-24.7,0-48.9,2.4-72.5,7.3l428.5,307.1C3581.5,3858.7,3574,3829.5,3563,3802.1z"/>
	<path d="M3026.2,4060.9c-18.4-34.2-27.7-73.8-27.5-118.5l-131.5-0.2c0.1,15.5,1,30.6,2.6,45.5l127.2,68.7L3026.2,4060.9z"/>
	<path d="M3513.5,4168.6c6.9-8.7,13.3-17.6,19.2-26.8l-69.8-10.9L3513.5,4168.6z"/>
	<path d="M3081.8,4127.4l-163.2,3.8c14.1,23.4,31.2,45.7,51.1,66.7c34.2,36.1,73.4,63.6,116.4,81.8c43.1,18.2,91.2,27.4,143.1,27.6
		c0.4,0,0.8,0,1.2,0c49.2,0,95.2-8.8,137-26c7.7-3.2,15.2-6.7,22.6-10.4c0,0,0,0,0,0l-167.5-90.5
		C3170,4178.8,3122.7,4161,3081.8,4127.4z"/>
	<path d="M3391.4,4112.5c-1.6,1.5-3.1,3.1-4.7,4.6l7.5,1.2l46.9-1.1l-32.6-24.3C3403.2,4099.6,3397.5,4106.1,3391.4,4112.5z"/>
	<path d="M3036.2,4077.5c-3.1-4.7-6.1-9.5-8.8-14.4l-25.1-3.9L3036.2,4077.5z"/>
	<path d="M3154.3,3582.7c-36.7,7.8-72,21.4-105.4,40.6c-48.4,27.8-88.3,64.9-119,110.2l103.7,77.3c8.9-14.5,19.5-28,31.8-40.5
		c43.8-44.7,98.5-67.3,163.4-67.3c63.8,0.2,118.6,23.7,163,70c44,45.8,66.3,102.3,66.6,167.9l130.5,0.2c-0.1-16.7-1.1-33.2-3.1-49.2
		L3154.3,3582.7z"/>
	<path d="M3458.7,4130.3l-64.6-10.1l-10.8,0.3c-42.6,39.9-93.9,60.1-152.6,60.1c-0.3,0-0.5,0-0.8,0c-1,0-1.9,0-2.8,0l165.3,89.3
		c32.7-16.9,63.3-39.5,91.2-67.5c10.3-10.3,19.9-21.1,28.7-32.2l-53.4-39.7L3458.7,4130.3z"/>
	<path d="M3459.4,4128.4l74.4,11.6c4.9-7.6,9.5-15.4,13.7-23.3l-100.6,2.3L3459.4,4128.4z"/>
	<path d="M3409.7,4091.2l34.6,25.8l104.3-2.4c5-9.6,9.6-19.4,13.7-29.4c17.5-42.8,26.4-90.2,26.6-140.9c0-0.4,0-0.7,0-1.1
		l-130.5-0.2C3458.3,3999.9,3441.9,4049.7,3409.7,4091.2z"/>
	<path d="M2991.2,4055.4l-121-65.3c2,16.4,5,32.4,9.1,47.9l111.5,17.3L2991.2,4055.4z"/>
	<path d="M1483.7,3999.5l117.1-59l-109.6-0.1C1490.9,3961.1,1488.4,3980.8,1483.7,3999.5z"/>
	<path d="M1446.8,4163.2l-22.4-57.6c-0.1,0.1-0.2,0.2-0.3,0.3c-23.4,24.1-49.7,41.9-78.6,53.2l7.2,6.3L1446.8,4163.2z"/>
	<path d="M1324.9,4166l24.8-0.6l-6.3-5.5C1337.3,4162.2,1331.1,4164.2,1324.9,4166z"/>
	<path d="M1261.7,3696.5c1.2,0.1,2.5,0.1,3.7,0.1c0,0,0,0,0,0l-48.8-125.4c-47.4,6-92.6,21.2-134.9,45.5
		c-52.3,30.2-94.8,71.1-126.4,121.7l145.6,22.7c43.3-42.9,97.1-64.6,160-64.6C1261.1,3696.5,1261.4,3696.5,1261.7,3696.5z"/>
	<path d="M1609.3,3938.6L1609.3,3938.6h12.4c0-0.2,0-0.4,0-0.6c0.1-1.9,0-3.8,0-5.7L1609.3,3938.6z"/>
	<path d="M1516.6,3676.4c-35.1-35.7-74.2-62.9-116.2-80.8s-88-27.1-136.9-27.2c-0.4,0-0.8,0-1.2,0c-14.7,0-29.3,0.9-43.7,2.6
		l48.9,125.7c61.3,1.6,114.1,25.1,157.2,69.9c15.1,15.8,27.6,32.7,37.6,50.9l147.9,23c-3.8-15.4-8.7-30.4-14.5-44.9
		C1578.3,3752.2,1551.7,3712.1,1516.6,3676.4z"/>
	<path d="M1449.5,4249.5c8.3-5.2,16.4-10.7,24.4-16.7c0,0,0,0,0,0l-26.3-67.7l-92.7,2.1l0.1,0.1L1449.5,4249.5z"/>
	<path d="M1149.4,4170l62.2-1.4c-12.6-2.7-24.8-6.6-36.7-11.4l-25.6,12.8L1149.4,4170z"/>
	<path d="M900.1,3933.2c0,1.5,0,2.9,0,4.4l131.5,0.2c0-0.6,0-1.2,0-1.8c0-15.4,1.2-30.2,3.4-44.5l-109.1-94.9
		C908.8,3839.3,900.1,3885,900.1,3933.2z"/>
	<path d="M1516.2,4196c10.6-10.6,20.5-21.7,29.5-33.1c0,0,0,0,0,0l-96,2.2l25.8,66.5C1489.6,4221,1503.2,4209.1,1516.2,4196z"/>
	<path d="M1316.2,4168.1c-16.9,3.9-34.5,5.9-53.6,5.9c-14.3,0-28.3-1.3-41.9-3.7l-75.5,1.7l-105.9,53.3c0,0,0.1,0,0.1,0.1
		c24.6,19.9,51.3,35.9,79.6,47.8c43.1,18.2,91.2,27.4,143.1,27.6c0.4,0,0.8,0,1.2,0c49.1,0,95.2-8.8,137-26
		c16.3-6.7,32.1-14.8,47.3-24.2c0,0,0,0,0.1,0l-95.8-83.3L1316.2,4168.1z"/>
	<path d="M1098.3,3763.9c0.3-0.3,0.6-0.6,0.9-0.9l-145-22.6c-1.9,3-3.7,6-5.4,9c-8.5,14.6-15.8,29.7-22.1,45.2l108.7,94.6
		C1043.5,3840.2,1064.6,3798.2,1098.3,3763.9z"/>
	<path d="M1172.5,4156.2c-20.6-8.8-40-20.6-58.2-35.6c-54.2-44.5-82-105.3-82.7-180.8l-131.5-0.2c0.5,47.2,9,91.9,25.3,132.9
		c14.3,36,34.9,69.9,61.4,101.3l157.9-3.6L1172.5,4156.2z"/>
	<path d="M1595.2,4078.8c17.1-42,26.1-88.5,26.5-138.2h0h-16.4l-122.2,61.5c-9.9,38.5-29.1,72.6-57.1,101.9l23,59.1l98.4-2.3
		C1567.3,4135.3,1583.4,4107.8,1595.2,4078.8z"/>
	<path d="M988.5,4175.7c4.5,5.4,9.2,10.6,14.2,15.8c11.2,11.7,22.8,22.6,35,32.5l102.9-51.8L988.5,4175.7z"/>
	<path d="M1463.5,3819.7c18.6,34.7,27.9,73.8,27.8,116.8c0,0.6,0,1.3,0,1.9l113.6,0.2l16.8-8.5c-0.4-30.4-4.1-59.7-10.9-87.5
		L1463.5,3819.7z"/>
	<path d="M2061.1,4781.7c1.6-1.7,3-3.5,4.3-5.3c8-11.1,12-25.2,12-41.8c0.1-15.7-3.5-29.7-10.7-41.4c-6.5-10.5-16.8-24-29.4-29
		c-9.5-3.8-38.9-4.7-68.6-4.7c-16.3,0-32.8,0.3-45.8,0.5c-0.6,0-1.1,0-1.6,0l53.1,46.2h14.1c12.8,0,21.9,1,27.1,2.9
		c5.1,1.9,9,5,12.1,9.4c3,4.3,4.5,9.5,4.5,15.3c0,7.7-1.9,13.6-5.6,17.9L2061.1,4781.7z"/>
	<path d="M2059.5,4783.2l-34.5-30.1c-0.7,0.7-1.5,1.3-2.3,1.9c-5.9,4.2-16.3,6.2-31.5,6.2c-0.3,0-0.7,0-1.1,0l-97.2-0.3v0l0.2-54.9
		l78.1,0.3l-53.1-46.2c-8.1,0.1-15.2,0.2-21,0.2l-50.7-0.2l-0.7,226.9l36.2,28.8h10.5l0.3-109h1l138.4-6.2
		C2043.4,4796.2,2052.5,4790.4,2059.5,4783.2z"/>
	<polygon points="1845.7,4915.6 1878.8,4915.7 1845.8,4889.5 	"/>
	<polygon points="1935.3,4806.9 1979.8,4807.1 2037.1,4916.3 2088.1,4916.5 2028.4,4802.8 	"/>
	<path d="M2964,4919.3l46.8,0.2l0.3-109.1h1c1,0,2.1,0,3.2,0c5.5,0,12.1-0.1,19.1-0.2l-69.9-16.1L2964,4919.3z"/>
	<path d="M3112,4667c-6.7-2.8-26.4-3.4-47.6-3.4c-8.9,0-18.1,0.1-26.8,0.1c-7.2,0.1-14.1,0.2-19.9,0.2c-0.8,0-1.5,0-2.2,0l-50.8-0.2
		l-0.3,95.1l46.8-2.1l0.2-47.1h14.8c0.2,0,0.5,0,0.7,0c4.5,0,11.3-0.2,19.2-0.5c11.4-0.4,21.7-0.7,29.8-0.7c9.5,0,16,0.4,18.1,1.7
		c8.3,5,12,17.9,11.9,27.7c0,5.9-1.4,10.9-4.1,15l48.4-2.2c0.6-3.9,0.9-8.1,0.9-12.4c0.1-15.9-3.4-29.8-10.4-41.3
		C3134.4,4686.6,3124.6,4672.3,3112,4667z"/>
	<path d="M3089.6,4762.2c-4.8,1.7-45.9,2.5-59.8,2.5c-0.8,0-1.4,0-2,0c0,0-0.1,0-0.1,0l-16.5-0.1v-5.7v0l-4.2,0.2l-42.6,1.9
		l-0.1,31.2l78.2,18c24.1-0.5,50.6-1.7,56.9-3.4c15.7-4.6,28.4-12.8,37.7-24.4c6.6-8.3,10.9-18.2,12.8-29.7l-49.6,2.2
		C3097.7,4758.1,3094.1,4760.6,3089.6,4762.2z"/>
	<path d="M2249.3,4792.9l-47.1,2c0,0,0,0.1,0,0.1c1.1,30.5,11.6,57.7,31,81.1l31.4-34C2254.8,4828.4,2249.7,4812,2249.3,4792.9z"/>
	<path d="M2249.4,4790.9c0-0.3,0-0.6,0-0.9c0.1-25.8,8.4-47.2,24.7-63.8s36.7-25,60.6-25c17.4,0,33.1,4.8,46.7,14.2l31.4-34.1
		c-22.5-17.3-48.5-26-77.5-26.1c-0.2,0-0.4,0-0.6,0c-23.4,0-45.6,6-66,17.8s-36.8,28.1-48.7,48.5c-11.8,20.3-17.8,43-17.9,67.3
		c0,1.4,0.1,2.8,0.1,4.2L2249.4,4790.9z"/>
	<path d="M2395.1,4727.2c15,15.6,23.2,34.4,24.5,56.1l46.7-2.1c-1.9-33.4-14.7-62.5-38.3-86.4c-4.4-4.5-8.9-8.6-13.6-12.3
		l-31.5,34.1C2387.2,4719.7,2391.3,4723.2,2395.1,4727.2z"/>
	<path d="M2419.7,4785.3c0.1,1.6,0.1,3.2,0.1,4.9c-0.1,24.8-8.5,45.9-24.9,62.8c-16.3,16.8-36.3,25.3-59.9,25.3
		c-20.6-0.1-39.1-6.7-55-19.8c-5.5-4.5-10.2-9.4-14.2-14.7l-31.3,33.9c1.7,2,3.4,3.9,5.2,5.8c25.1,26.5,57.1,40,95.5,40.1
		c36.1,0,67.3-12.9,92.7-38.4c25.5-25.6,38.5-57.4,38.6-94.6c0.1-2.5,0-5-0.1-7.4L2419.7,4785.3z"/>
</g>
</svg>
