<?xml version="1.0" encoding="utf-8"?>
<!-- Generator: Adobe Illustrator 19.2.1, SVG Export Plug-In . SVG Version: 6.00 Build 0)  -->
<svg version="1.0" id="Layer_1" xmlns="http://www.w3.org/2000/svg" xmlns:xlink="http://www.w3.org/1999/xlink" x="0px" y="0px"
	 viewBox="0 0 6796.4 4426.5" style="enable-background:new 0 0 6796.4 4426.5;" xml:space="preserve">
<path d="M1367.9,4381.6h542.2v-135.9h-406.4v-203.3h337.9v-134.7h-337.9v-203.3h406.4v-135.9h-542.2V4381.6z"/>
<path d="M2548.7,3976.2c69.7-17.4,135.8-72,135.8-178.9c0-234.6-270.5-228.8-270.5-228.8h-270.5v813.1H2414
	c54.6,0,282.1-10.4,282.1-233.5C2696.2,4148.1,2702,4007.6,2548.7,3976.2z M2278.2,3703.3H2414c0,0,134.7-5.8,134.7,103.4
	c0,101-134.7,101-134.7,101h-135.8V3703.3z M2414,4246.9h-135.8v-203.3H2414c0,0,146.3-8.1,146.3,101.1
	C2560.3,4232.9,2470.9,4246.9,2414,4246.9z"/>
<path d="M3207,3568.5h-270.5v135.9v677.2h135.9v-339.2H3207c0,0,270.5,0,270.5-236.9C3477.6,3568.5,3207,3568.5,3207,3568.5z
	 M3207.9,3907.7h-135.8v-204.4h135.8c0,0,134.7-5.8,134.7,103.4C3342.6,3907.7,3207.9,3907.7,3207.9,3907.7z"/>
<path d="M4039,4028.5c79-22.1,178.8-79,178.8-223c0-236.9-271.7-236.9-271.7-236.9h-270.5v813.1h135.8v-339.2h77.8l211.3,339.2
	h159.1L4039,4028.5z M3810.1,3907.9v-204.4h135.9c0,0,134.7-5.8,134.7,103.4c0,101-134.7,101-134.7,101H3810.1z"/>
<path d="M4808.4,3559.1c-226.3,0-411.5,185.5-411.5,412.3c0,226.7,185.2,412.3,411.5,412.3c226.3,0,411.5-185.5,411.5-412.3
	C5219.9,3744.6,5034.7,3559.1,4808.4,3559.1z M4805.6,4249.9c-153.4,0-276.1-123.7-276.1-278.5c0-154.7,122.7-278.4,276.1-278.4
	c153.4,0,276.1,123.8,276.1,278.4C5081.7,4126.1,4959,4249.9,4805.6,4249.9z"/>
<path d="M5391.1,4381.6H5527v-339.2h337.9v-134.7H5527v-203.3h406.4v-135.9h-542.2V4381.6z"/>
<path d="M6630.3,3568.5l-206.7,290.4l-207.8-290.4h-166l305.4,428.6v384.5H6491v-384.5l305.4-428.6H6630.3z"/>
<path d="M870.6,4060.6l-142.1-292.7l-114.9-234.5l-109.5,234.5l-142.1,306.3l-177.6-493.4L0,3575.3l362.1,851.2l251.6-538.3
	l257,538.3l325.1-845.6h-146.3L870.6,4060.6z"/>
<path d="M3359.1,414.2l34.3-315C3399,46.9,3354.2,0,3292.5,0c-61.7,0-106.5,46.9-100.8,99.2l34.2,315
	c-173.5,30-305.1,174.8-305.1,348.9c0,72,22.6,139.1,61.2,195c66.4,96.2,181.3,161.1,310.8,161.1c140,0,262.4-75.8,325.6-185.4
	c29.2-50.7,45.9-108.8,45.9-170.7C3664.3,588.9,3532.6,444.2,3359.1,414.2z M3292.5,967.5c-118.3,0-214.2-91.5-214.2-204.4
	c0-112.8,95.9-204.3,214.2-204.3c118.3,0,214.2,91.5,214.2,204.3C3506.6,876,3410.8,967.5,3292.5,967.5z"/>
<path d="M3087.8,1593.4c-0.3,1.8,116.7-159.4,180.2-253.8l-101-150.3c-108.1-28.4-199.7-94.6-258.6-183.3l-404.7,837.6
	c-1.3,1.3,50.7,115.7,108.3,214.8C2884.7,1570.6,2908.5,1511.9,3087.8,1593.4z"/>
<path d="M4344.1,2025.5c262.2-570,344.9-983.9,344.9-983.9l-283.1,135c0,0,4.3,189.4-182.6,621.7L4344.1,2025.5z"/>
<path d="M4318.3,2181.1l-116.7-232.7l-510.7-965.7c-76.9,129.6-221.7,217.2-388.1,217.2c-7.6,0-14.9-0.7-22.4-1.1
	c51.9,79.8,243.9,378.6,243.9,378.6c205.3-70.7,241.5,57.1,558.4,641.2c0,0,373.4,648.1,370.1,648.3
	c105.1,8.7,254.6,89.9,254.6,89.9L4318.3,2181.1z"/>
<path d="M3830.5,2544.5c-26.9-6.9-396.9-562-473.9-709.2l-35.1-72.5c-8.7-14.6-21.8-14.9-30.1,0l-39.4,81.3
	c-86,164.8-443,693.5-469.4,700.4c-84.8-140.3-156.9-268.6-218.5-385.6v0c-44.9-78.1-78.5-150.6-95.3-188.9v0.1
	c-266.7-554.4-261.2-793.6-261.2-793.6l-283.1-135c0,0,97.4,487.9,416.3,1133.8c0,0,62.4,123.9,113.9,223
	c85,159.7,184.1,332.7,300.2,518.2c17.4,14.3,32.2,0,32.2,0l513.3-768.6l525.5,768.6c0,0,14.8,14.3,32.2,0
	c109.3-174.7,178.8-297.8,260.4-449.7l-119-220.9C3943.5,2350.2,3904.1,2422.6,3830.5,2544.5z"/>
<path d="M1893.3,2966.7c0,0,156-84.7,261.1-93.4c-3-0.2,119.9-213.4,233.8-423.1c-59.4-100.6-96.8-182.3-114.2-218.4L1893.3,2966.7z
	"/>
</svg>
